<?xml version="1.0" standalone="no"?><!DOCTYPE svg PUBLIC "-//W3C//DTD SVG 1.1//EN" "http://www.w3.org/Graphics/SVG/1.1/DTD/svg11.dtd"><svg t="1630915107045" class="icon" viewBox="0 0 1024 1024" version="1.1" xmlns="http://www.w3.org/2000/svg" p-id="2996" xmlns:xlink="http://www.w3.org/1999/xlink" width="48" height="64"><defs><style type="text/css"></style></defs><path d="M703.552 549.28V159.424c0-83.392-68.32-151.232-151.712-151.232-83.36 0-151.68 67.84-151.68 151.232v389.76C331.968 597.728 289.28 676.128 289.28 758.4c0 142.336 114.944 258.144 256.16 258.144 144.032 0 261.6-115.808 261.6-258.144-0.032-85.632-38.72-162.336-103.488-209.12zM545.504 944.416c-101.408 0-183.936-83.456-183.936-186.016 0-38.432 13.024-75.744 35.968-106.816h136.48c9.952 0 18.048-8.768 18.048-18.752 0-9.952-8.064-18.752-18.048-18.752h-99.968c6.592-5.152 13.12-9.92 20.448-14.272l17.28-10.464v-50.272h62.24c9.952 0 18.048-7.072 18.048-17.056 0-9.952-8.064-17.056-18.048-17.056h-62.24v-34.08h62.24c9.952 0 18.048-7.072 18.048-17.056 0-9.952-8.064-17.056-18.048-17.056h-62.24v-40.896h62.24c9.952 0 18.048-7.072 18.048-17.056S544 361.76 534.016 361.76h-62.24v-34.08h62.24c9.952 0 18.048-7.072 18.048-17.056 0-9.952-8.064-17.056-18.048-17.056h-62.24v-40.864h62.24c9.952 0 18.048-7.072 18.048-17.056s-8.064-17.056-18.048-17.056h-62.24v-59.2c0-43.616 36.512-79.104 80.096-79.104 43.616 0 80.128 35.488 80.128 79.104v429.92l17.088 10.464c54.72 32.416 85.824 90.208 85.824 158.592-0.032 102.592-85.152 186.048-189.408 186.048z" p-id="2997" fill="#ff5e00"></path><path d="M430.624 733.376c-3.904 13.632-6.56 25.152-6.56 38.496 0 68.48 55.52 124.224 123.968 124.224 68.48 0 123.968-55.904 123.968-124.352 0-13.344-2.656-24.704-6.56-38.368H430.624z" p-id="2998" fill="#ff5e00"></path></svg>